<svg xmlns="http://www.w3.org/2000/svg" xmlns:xlink="http://www.w3.org/1999/xlink" width="17" height="21" viewBox="0 0 17 21" fill="none"><path id="形状" fill-rule="evenodd" style="fill:#1890FF" transform="translate(0 0)  rotate(0 8.5 10.5)" opacity="1" d="M0 18C0 19.66 1.31 21 2.93 21L14.07 21C15.69 21 17 19.66 17 18L17 15C17 13.79 16.25 12.72 15.14 12.33L12.26 11.33C12.13 11.28 12.01 11.04 12.01 11.04C11.99 10.91 12.13 10.69 12.13 10.69C13.64 9.31 14.39 7.77 14.39 6.07C14.39 2.72 11.78 0 8.5 0C5.22 0 2.61 2.72 2.61 6.07C2.61 7.77 3.37 9.31 4.87 10.69C4.87 10.69 5.01 10.91 4.99 11.04C4.99 11.04 4.87 11.28 4.74 11.33L1.86 12.33C0.75 12.72 0 13.79 0 15L0 18Z M7.91534 14.3824C7.76534 14.5424 7.67534 14.7524 7.67534 14.9724L7.67534 17.0424C7.67534 17.5024 8.04534 17.8824 8.49534 17.8824C8.95534 17.8824 9.32534 17.5024 9.32534 17.0424L9.32534 14.9724C9.32534 14.7524 9.23534 14.5424 9.08534 14.3824C8.92534 14.2224 8.71534 14.1324 8.49534 14.1324C8.28534 14.1324 8.07534 14.2224 7.91534 14.3824Z " /></svg>