<?xml version="1.0" standalone="no"?><!DOCTYPE svg PUBLIC "-//W3C//DTD SVG 1.1//EN" "http://www.w3.org/Graphics/SVG/1.1/DTD/svg11.dtd"><svg t="1646640780394" class="icon" viewBox="0 0 1024 1024" version="1.1" xmlns="http://www.w3.org/2000/svg" p-id="30275" xmlns:xlink="http://www.w3.org/1999/xlink" width="200" height="200"><defs><style type="text/css"></style></defs><path d="M511.3 512.1m-483.5 0a483.5 483.5 0 1 0 967 0 483.5 483.5 0 1 0-967 0Z" fill="#89B7F5" p-id="30276"></path><path d="M511.3 1010.7c-67.3 0-132.6-13.2-194.1-39.2-59.4-25.1-112.7-61.1-158.5-106.8C113 818.9 77.1 765.6 52 706.2c-26-61.5-39.2-126.8-39.2-194.1S26 379.5 52 318.1c25.1-59.4 61.1-112.7 106.8-158.5s99.1-81.7 158.5-106.8c61.5-26 126.8-39.2 194.1-39.2S644 26.8 705.5 52.8c59.4 25.1 112.7 61.1 158.5 106.8 45.8 45.8 81.7 99.1 106.8 158.5 26 61.5 39.2 126.8 39.2 194.1s-13.2 132.6-39.2 194.1C945.7 765.7 909.7 819 864 864.8c-45.8 45.8-99.1 81.7-158.5 106.8-61.6 25.9-126.9 39.1-194.2 39.1z m0-967.1C448.1 43.6 386.7 56 329 80.4c-55.8 23.6-105.9 57.4-149 100.4s-76.8 93.2-100.4 149c-24.4 57.8-36.8 119.1-36.8 182.4s12.4 124.6 36.8 182.4C103.2 750.3 137 800.4 180 843.4c43 43 93.1 76.8 148.9 100.4 57.8 24.4 119.1 36.8 182.4 36.8 63.3 0 124.6-12.4 182.4-36.8 55.8-23.6 105.9-57.4 148.9-100.4 43-43 76.8-93.1 100.4-148.9 24.4-57.8 36.8-119.1 36.8-182.4S967.4 387.5 943 329.7c-23.6-55.8-57.4-105.9-100.4-148.9-43-43-93.1-76.8-148.9-100.4C635.9 56 574.6 43.6 511.3 43.6z" fill="#0F53A8" p-id="30277"></path><path d="M511.3 512.1m-396.3 0a396.3 396.3 0 1 0 792.6 0 396.3 396.3 0 1 0-792.6 0Z" fill="#B6CDEF" p-id="30278"></path><path d="M511.3 923.4c-55.5 0-109.4-10.9-160.1-32.3-49-20.7-93-50.4-130.7-88.1s-67.4-81.8-88.1-130.7C110.9 621.5 100 567.6 100 512.1s10.9-109.4 32.3-160.1c20.7-49 50.4-93 88.1-130.7 37.8-37.8 81.8-67.4 130.7-88.1 50.7-21.5 104.6-32.3 160.1-32.3s109.4 10.9 160.1 32.3c49 20.7 93 50.4 130.7 88.1 37.8 37.8 67.4 81.8 88.1 130.7 21.5 50.7 32.3 104.6 32.3 160.1s-10.9 109.4-32.3 160.1c-20.7 49-50.4 93-88.1 130.7s-81.8 67.4-130.7 88.1c-50.6 21.6-104.4 32.4-160 32.4z m0-792.6c-51.5 0-101.4 10.1-148.4 30-45.4 19.2-86.2 46.7-121.2 81.7s-62.5 75.8-81.7 121.2c-19.9 47-30 96.9-30 148.4s10.1 101.4 30 148.4c19.2 45.4 46.7 86.2 81.7 121.2s75.8 62.5 121.2 81.7c47 19.9 96.9 30 148.4 30s101.4-10.1 148.4-30c45.4-19.2 86.2-46.7 121.2-81.7s62.5-75.8 81.7-121.2c19.9-47 30-96.9 30-148.4s-10.1-101.4-30-148.4c-19.2-45.4-46.7-86.2-81.7-121.2s-75.8-62.5-121.2-81.7c-47-19.9-96.9-30-148.4-30z" fill="#0F53A8" p-id="30279"></path><path d="M511.3 246.7c-8.3 0-15-6.7-15-15v-47.2c0-8.3 6.7-15 15-15s15 6.7 15 15v47.2c0 8.3-6.7 15-15 15zM511.3 854.7c-8.3 0-15-6.7-15-15v-47.2c0-8.3 6.7-15 15-15s15 6.7 15 15v47.2c0 8.3-6.7 15-15 15zM709.6 328.8c-3.8 0-7.7-1.5-10.6-4.4-5.9-5.9-5.9-15.4 0-21.2l33.4-33.4c5.9-5.9 15.4-5.9 21.2 0 5.9 5.9 5.9 15.4 0 21.2l-33.4 33.4c-2.9 3-6.7 4.4-10.6 4.4zM279.7 758.8c-3.8 0-7.7-1.5-10.6-4.4-5.9-5.9-5.9-15.4 0-21.2l33.4-33.4c5.9-5.9 15.4-5.9 21.2 0 5.9 5.9 5.9 15.4 0 21.2l-33.4 33.4c-2.9 2.9-6.8 4.4-10.6 4.4zM838.9 527.1h-47.2c-8.3 0-15-6.7-15-15s6.7-15 15-15h47.2c8.3 0 15 6.7 15 15s-6.7 15-15 15zM230.9 527.1h-47.2c-8.3 0-15-6.7-15-15s6.7-15 15-15h47.2c8.3 0 15 6.7 15 15s-6.7 15-15 15z" fill="#0F53A8" p-id="30280"></path><path d="M743 758.8c-3.8 0-7.7-1.5-10.6-4.4L699 721c-5.9-5.9-5.9-15.4 0-21.2 5.9-5.9 15.4-5.9 21.2 0l33.4 33.4c5.9 5.9 5.9 15.4 0 21.2-2.9 2.9-6.8 4.4-10.6 4.4zM313 328.8c-3.8 0-7.7-1.5-10.6-4.4L269 291c-5.9-5.9-5.9-15.4 0-21.2 5.9-5.9 15.4-5.9 21.2 0l33.4 33.4c5.9 5.9 5.9 15.4 0 21.2-2.9 3-6.7 4.4-10.6 4.4z" fill="#0F53A8" p-id="30281"></path><path d="M493 512.1l18.3-239.4 18.4 239.4z" fill="#B6CDEF" p-id="30282"></path><path d="M529.7 527.1H493c-4.2 0-8.2-1.7-11-4.8s-4.3-7.2-4-11.3l18.3-239.5c0.6-7.8 7.1-13.9 15-13.9 7.8 0 14.4 6 15 13.9L544.6 511c0.3 4.2-1.1 8.3-4 11.3s-6.8 4.8-10.9 4.8z m-20.5-30h4.3l-2.1-27.9-2.2 27.9z" fill="#0F53A8" p-id="30283"></path><path d="M517.5 499.7l138.9 162-162-138.9z" fill="#B6CDEF" p-id="30284"></path><path d="M656.4 676.7c-3.5 0-6.9-1.2-9.8-3.6l-162-138.9c-3.2-2.7-5.1-6.6-5.2-10.8-0.2-4.2 1.4-8.2 4.4-11.2l23-23c3-3 7-4.5 11.2-4.4 4.2 0.2 8.1 2.1 10.8 5.2l138.9 162c5.1 6 4.8 14.8-0.8 20.4-2.8 2.8-6.6 4.3-10.5 4.3zM516.5 521.9l0.9 0.8-0.8-0.9-0.1 0.1z" fill="#0F53A8" p-id="30285"></path><path d="M242 616.5l266-104.4" fill="#B6CDEF" p-id="30286"></path><path d="M242 631.5c-6 0-11.6-3.6-14-9.5-3-7.7 0.8-16.4 8.5-19.4l266-104.3c7.7-3 16.4 0.8 19.4 8.5s-0.8 16.4-8.5 19.4l-266 104.3c-1.7 0.6-3.6 1-5.4 1z" fill="#0F53A8" p-id="30287"></path><path d="M511.3 512.1m-30.1 0a30.1 30.1 0 1 0 60.2 0 30.1 30.1 0 1 0-60.2 0Z" fill="#B6CDEF" p-id="30288"></path><path d="M511.3 557.3c-24.9 0-45.1-20.2-45.1-45.1 0-24.9 20.2-45.1 45.1-45.1s45.1 20.2 45.1 45.1c0.1 24.8-20.2 45.1-45.1 45.1z m0-60.3c-8.3 0-15.1 6.8-15.1 15.1s6.8 15.1 15.1 15.1 15.1-6.8 15.1-15.1c0.1-8.3-6.7-15.1-15.1-15.1z" fill="#0F53A8" p-id="30289"></path></svg>