<?xml version="1.0" standalone="no"?><!DOCTYPE svg PUBLIC "-//W3C//DTD SVG 1.1//EN" "http://www.w3.org/Graphics/SVG/1.1/DTD/svg11.dtd"><svg t="1646637754708" class="icon" viewBox="0 0 1024 1024" version="1.1" xmlns="http://www.w3.org/2000/svg" p-id="26379" xmlns:xlink="http://www.w3.org/1999/xlink" width="200" height="200"><defs><style type="text/css"></style></defs><path d="M209.1 65.6h607.1c34.4 0 62.6 28.2 62.6 62.6V899c0 34.4-28.2 62.6-62.6 62.6H209.1c-34.4 0-62.6-28.2-62.6-62.6V128.2c0-34.4 28.2-62.6 62.6-62.6z" fill="#5B79FB" p-id="26380"></path><path d="M221.7 114.9h581.9c17.3 0 31.5 14.2 31.5 31.5v88.7c0 17.3-14.2 31.5-31.5 31.5H221.7c-17.3 0-31.5-14.2-31.5-31.5v-88.7c0-17.3 14.2-31.5 31.5-31.5z" fill="#E5ECFF" p-id="26381"></path><path d="M219.3 290.2h81.9c16 0 29.1 13.1 29.1 29.1v84.9c0 16-13.1 29.1-29.1 29.1h-81.9c-16 0-29.1-13.1-29.1-29.1v-84.9c0-16 13.1-29.1 29.1-29.1zM387.6 290.2h81.9c16 0 29.1 13.1 29.1 29.1v84.9c0 16-13.1 29.1-29.1 29.1h-81.9c-16 0-29.1-13.1-29.1-29.1v-84.9c0-16 13.1-29.1 29.1-29.1zM555.9 290.2h81.9c16 0 29.1 13.1 29.1 29.1v84.9c0 16-13.1 29.1-29.1 29.1h-81.9c-16 0-29.1-13.1-29.1-29.1v-84.9c-0.1-16 13.1-29.1 29.1-29.1zM724.1 290.2H806c16 0 29.1 13.1 29.1 29.1v84.9c0 16-13.1 29.1-29.1 29.1h-81.9c-16 0-29.1-13.1-29.1-29.1v-84.9c0-16 13.1-29.1 29.1-29.1zM219.3 453.4h81.9c16 0 29.1 13.1 29.1 29.1v84.9c0 16-13.1 29.1-29.1 29.1h-81.9c-16 0-29.1-13.1-29.1-29.1v-84.9c0-16 13.1-29.1 29.1-29.1zM387.6 453.4h81.9c16 0 29.1 13.1 29.1 29.1v84.9c0 16-13.1 29.1-29.1 29.1h-81.9c-16 0-29.1-13.1-29.1-29.1v-84.9c0-16 13.1-29.1 29.1-29.1zM555.9 453.4h81.9c16 0 29.1 13.1 29.1 29.1v84.9c0 16-13.1 29.1-29.1 29.1h-81.9c-16 0-29.1-13.1-29.1-29.1v-84.9c-0.1-16 13.1-29.1 29.1-29.1zM724.1 453.4H806c16 0 29.1 13.1 29.1 29.1v84.9c0 16-13.1 29.1-29.1 29.1h-81.9c-16 0-29.1-13.1-29.1-29.1v-84.9c0-16 13.1-29.1 29.1-29.1zM219.3 616.6h81.9c16 0 29.1 13.1 29.1 29.1v84.9c0 16-13.1 29.1-29.1 29.1h-81.9c-16 0-29.1-13.1-29.1-29.1v-84.9c0-16 13.1-29.1 29.1-29.1zM387.6 616.6h81.9c16 0 29.1 13.1 29.1 29.1v84.9c0 16-13.1 29.1-29.1 29.1h-81.9c-16 0-29.1-13.1-29.1-29.1v-84.9c0-16 13.1-29.1 29.1-29.1zM555.9 616.6h81.9c16 0 29.1 13.1 29.1 29.1v84.9c0 16-13.1 29.1-29.1 29.1h-81.9c-16 0-29.1-13.1-29.1-29.1v-84.9c-0.1-16 13.1-29.1 29.1-29.1zM724.1 616.6H806c16 0 29.1 13.1 29.1 29.1v84.9c0 16-13.1 29.1-29.1 29.1h-81.9c-16 0-29.1-13.1-29.1-29.1v-84.9c0-16 13.1-29.1 29.1-29.1zM219.3 779.8h81.9c16 0 29.1 13.1 29.1 29.1v84.9c0 16-13.1 29.1-29.1 29.1h-81.9c-16 0-29.1-13.1-29.1-29.1v-84.9c0-16 13.1-29.1 29.1-29.1zM387.6 779.8h81.9c16 0 29.1 13.1 29.1 29.1v84.9c0 16-13.1 29.1-29.1 29.1h-81.9c-16 0-29.1-13.1-29.1-29.1v-84.9c0-16 13.1-29.1 29.1-29.1zM555.9 779.8h81.9c16 0 29.1 13.1 29.1 29.1v84.9c0 16-13.1 29.1-29.1 29.1h-81.9c-16 0-29.1-13.1-29.1-29.1v-84.9c-0.1-16 13.1-29.1 29.1-29.1z" fill="#A4BEFF" p-id="26382"></path><path d="M724.1 779.8H806c16 0 29.1 13.1 29.1 29.1v84.9c0 16-13.1 29.1-29.1 29.1h-81.9c-16 0-29.1-13.1-29.1-29.1v-84.9c0-16 13.1-29.1 29.1-29.1z" fill="#FF7E71" p-id="26383"></path><path d="M281.6 342.3c-6.5 7.6-10.9 14.7-13.3 21.2-2.4 6.6-4.1 14.5-5.1 23.8l-0.6 6.2h-12.1l0.6-6.2c0.9-8.9 3-17 6.1-24.5 3.1-7.4 7.3-14.3 12.7-20.5h-31.1V333h42.7v9.3zM449.5 347.6c0 3-0.8 5.7-2.4 8-1.6 2.3-3.8 4.1-6.6 5.4 3.2 1.4 5.8 3.3 7.6 5.8 1.9 2.5 2.8 5.4 2.8 8.6 0 5.6-1.9 9.9-5.7 12.9-3.8 3-8.8 4.5-14.9 4.5-6.2 0-11.2-1.5-15-4.5-3.8-3-5.7-7.3-5.7-12.9 0-3.3 0.9-6.2 2.8-8.7 1.8-2.5 4.4-4.5 7.6-5.8-2.8-1.3-5-3.1-6.6-5.4-1.6-2.3-2.4-5-2.4-8 0-5.4 1.8-9.5 5.3-12.5 3.5-2.9 8.2-4.4 13.9-4.4 5.7 0 10.4 1.5 13.9 4.4 3.6 3.1 5.4 7.2 5.4 12.6z m-10.8 27.1c0-2.7-0.8-4.9-2.4-6.5-1.6-1.6-3.6-2.5-6.1-2.5-2.6 0-4.6 0.8-6.1 2.5-1.5 1.6-2.3 3.8-2.3 6.5 0 2.8 0.8 5 2.3 6.5 1.5 1.6 3.6 2.4 6.2 2.4 2.5 0 4.6-0.8 6.1-2.4 1.6-1.6 2.3-3.8 2.3-6.5z m-1.3-26.6c0-2.4-0.6-4.4-1.9-5.9-1.3-1.5-3-2.2-5.2-2.2s-4 0.7-5.2 2.2c-1.2 1.4-1.9 3.4-1.9 5.9 0 2.5 0.6 4.5 1.9 6 1.3 1.5 3 2.2 5.3 2.2 2.2 0 3.9-0.7 5.2-2.2 1.1-1.4 1.8-3.4 1.8-6zM595.7 383.6c3.2 0 5.8-1.2 7.8-3.6 2-2.4 3-5.8 3-10.2v-3c-1.4 1.7-3 3-4.8 3.9-1.9 0.9-3.9 1.3-6 1.3-5.6 0-10.1-1.8-13.3-5.5-3.2-3.7-4.8-8.6-4.8-14.9 0-6 1.9-11 5.7-15.1 3.8-4 8.7-6 14.6-6 6.2 0 11.2 2.1 15 6.4 3.9 4.3 5.8 10.2 5.8 17.9v14.3c0 7.3-2.2 13.1-6.5 17.3-4.3 4.2-9.8 6.3-16.5 6.3-2.1 0-4.3-0.2-6.5-0.6-2.2-0.4-4.3-1.1-6.2-1.9l1.4-8.8c1.8 0.7 3.6 1.2 5.3 1.5 1.8 0.6 3.8 0.7 6 0.7z m2-20.3c2 0 3.7-0.4 5.2-1.1 1.5-0.8 2.7-1.7 3.6-3v-5.6c0-4.4-0.8-7.8-2.3-10.1-1.5-2.3-3.7-3.4-6.3-3.4-2.4 0-4.4 1.1-6 3.4-1.5 2.3-2.3 5-2.3 8.3 0 3.4 0.7 6.2 2.1 8.3 1.4 2.1 3.4 3.2 6 3.2zM739.6 343.2c0-3.6 1.2-6.5 3.5-8.9 2.3-2.4 5.5-3.6 9.7-3.6 4.2 0 7.4 1.2 9.7 3.5 2.3 2.4 3.4 5.4 3.4 9v3.2c0 3.6-1.2 6.5-3.4 8.9-2.3 2.4-5.5 3.5-9.6 3.5-4.2 0-7.4-1.2-9.7-3.5-2.3-2.3-3.5-5.3-3.5-8.9v-3.2h-0.1z m8.1 3.2c0 1.6 0.4 2.9 1.3 4s2.2 1.6 3.8 1.6c1.6 0 2.9-0.6 3.7-1.6 0.9-1.1 1.3-2.4 1.3-4v-3.2c0-1.6-0.4-3-1.3-4.1-0.9-1.1-2.2-1.7-3.8-1.7-1.6 0-2.9 0.6-3.8 1.7-0.9 1.1-1.3 2.5-1.3 4.1v3.2h0.1z m20.9 30.8c0-3.5 1.2-6.5 3.5-8.9 2.3-2.4 5.6-3.6 9.7-3.6 4.2 0 7.4 1.2 9.7 3.5 2.3 2.4 3.5 5.3 3.5 8.9v3.2c0 3.6-1.1 6.6-3.4 8.9-2.3 2.4-5.5 3.5-9.6 3.5-4.2 0-7.4-1.2-9.7-3.5-2.3-2.4-3.5-5.3-3.5-8.9v-3.1h-0.2z m8 3.2c0 1.6 0.5 2.9 1.4 4 1 1.1 2.2 1.7 3.8 1.7 1.8 0 3.1-0.5 3.9-1.6 0.8-1 1.2-2.4 1.2-4.2v-3.2c0-1.6-0.4-2.9-1.3-4s-2.2-1.7-3.8-1.7c-1.7 0-2.9 0.6-3.8 1.7-0.9 1.1-1.3 2.5-1.3 4v3.3h-0.1z m-21.7 7.1l29.5-47.3-5.9-3.1-29.5 47.3 5.9 3.1zM276.1 532.6h6.9v9.4h-6.9v13.1H264V542h-24.7l-0.5-7.3 25.1-40.1h12.2v38z m-26 0H264v-21.8l-0.2-0.1-1 1.7-12.7 20.2zM411.5 528.4l3.5-33.7h33.7v9.7h-23.8l-1.7 14c1.1-0.8 2.4-1.5 4-2.1 1.6-0.5 3.3-0.8 5.2-0.9 5.8-0.1 10.3 1.7 13.5 5.3 3.2 3.6 4.8 8.6 4.8 15 0 5.8-1.8 10.6-5.3 14.5-3.5 3.8-8.6 5.8-15.1 5.8-5.6 0-10.3-1.5-14.3-4.6-4-3-5.9-7.2-5.7-12.5l0.1-0.2 11.7-0.6c0 2.7 0.8 4.8 2.3 6.3 1.5 1.5 3.5 2.3 6 2.3 2.8 0 4.9-1 6.3-3 1.3-2 2-4.6 2-7.9 0-3.5-0.7-6.3-2.2-8.4-1.4-2.1-3.6-3.2-6.4-3.2-2.3 0-4.1 0.4-5.3 1.3-1.2 0.9-2.1 2-2.6 3.5l-10.7-0.6zM602.5 493.8c2.3 0 4.4 0.2 6.3 0.6 1.9 0.4 3.9 1.1 5.8 1.9l-2.2 8.9c-1.8-0.6-3.5-1.1-4.9-1.4-1.4-0.3-3.1-0.5-5-0.5-3.7 0-6.6 1.4-8.9 4.1-2.2 2.8-3.3 6.6-3.1 11.4l0.1 0.2c1.4-1.4 3.1-2.5 5.2-3.3 2.1-0.8 4.4-1.2 7-1.2 5.4 0 9.6 1.9 12.7 5.8 3.1 3.8 4.6 8.7 4.6 14.7 0 6.1-1.9 11.1-5.7 15.1-3.8 4-8.7 5.9-14.7 5.9-6.4 0-11.6-2.2-15.6-6.5s-6-10.3-6-18v-11.8c0-7.9 2.3-14.2 6.8-18.9 4.8-4.7 10.6-7 17.6-7z m-2.7 30c-2.3 0-4.2 0.4-5.7 1.1-1.6 0.7-2.8 1.7-3.6 3v4c0 4.8 0.9 8.5 2.6 11 1.7 2.6 4 3.9 6.9 3.9 2.5 0 4.5-1.1 6-3.4s2.3-5 2.3-8.3c0-3.3-0.8-6.1-2.3-8.1-1.7-2.2-3.7-3.2-6.2-3.2zM767 524.5h0.2l6.9-14.3h13.7l-13.5 22.2 14 22.8h-13.7l-7.3-15-7.4 15h-13.7l14-22.8-13.6-22.2h13.6zM267.9 718.4h-12.1v-49.8h-12.3V660l24.4-2.1zM451.3 718.4H410v-7.9l19.6-21c2.8-3.2 4.8-6 6-8.2 1.2-2.2 1.8-4.3 1.8-6.2 0-2.5-0.7-4.6-2.1-6.3-1.4-1.6-3.3-2.4-5.8-2.4-2.8 0-4.9 0.9-6.4 2.9-1.4 1.9-2.2 4.4-2.2 7.6h-11.8l-0.1-0.2c-0.1-5.5 1.6-10.1 5.4-13.9 3.7-3.8 8.7-5.7 15.1-5.7 6.2 0 11.1 1.6 14.7 4.9 3.6 3.2 5.3 7.6 5.3 13 0 3.7-1 7-3 10.1-2 3.1-5.3 7.1-10 12.2l-10.8 11.8 0.1 0.2h25.4v9.1zM590.5 683h6.8c2.9 0 5-0.8 6.4-2.3 1.4-1.5 2.1-3.6 2.1-6.3 0-2.4-0.7-4.4-2.1-5.9-1.4-1.5-3.4-2.2-6-2.2-2.3 0-4.2 0.7-5.7 2-1.6 1.3-2.3 3.1-2.3 5.2h-11.8l-0.1-0.3c-0.2-4.7 1.6-8.6 5.4-11.7 3.8-3.1 8.5-4.6 14.1-4.6 6.3 0 11.2 1.5 15 4.5 3.7 3 5.6 7.3 5.6 12.8 0 2.6-0.8 5.1-2.5 7.5-1.7 2.4-3.9 4.2-6.8 5.5 3.3 1.2 5.9 3 7.7 5.5 1.8 2.5 2.6 5.3 2.6 8.6 0 5.5-2 9.9-6 13.1-4 3.2-9.2 4.7-15.5 4.7-5.6 0-10.5-1.5-14.5-4.5s-6-7.2-5.8-12.6l0.1-0.3H589c0 2.3 0.8 4.3 2.5 5.8s3.8 2.3 6.3 2.3c2.8 0 5-0.8 6.6-2.3 1.6-1.5 2.4-3.7 2.4-6.3 0-3.2-0.8-5.5-2.4-7-1.6-1.5-3.9-2.2-7-2.2h-6.8v-9zM755.6 688.2H779v9.3h-23.4zM281.3 858c0 8-1.8 14.1-5.5 18.2s-8.6 6.2-14.9 6.2c-6.3 0-11.3-2.1-15-6.2-3.7-4.1-5.5-10.2-5.5-18.2v-13.3c0-8 1.8-14.1 5.5-18.2 3.7-4.2 8.6-6.2 14.9-6.2 6.3 0 11.2 2.1 14.9 6.2 3.7 4.2 5.5 10.2 5.5 18.2V858h0.1z m-12.1-14.6c0-4.8-0.7-8.3-2.2-10.5-1.4-2.2-3.5-3.3-6.2-3.3-2.8 0-4.8 1.1-6.2 3.3-1.4 2.2-2.1 5.7-2.1 10.6v15.7c0 4.9 0.7 8.4 2.1 10.7 1.4 2.2 3.5 3.3 6.3 3.3 2.7 0 4.8-1.1 6.2-3.3 1.4-2.2 2.1-5.8 2.1-10.7v-15.8zM420.6 848.1c0-2.8 0.9-5 2.7-6.8 1.8-1.8 4.2-2.7 7.1-2.7 3 0 5.5 0.9 7.3 2.6 1.8 1.8 2.7 4 2.7 6.8v3.7c0 2.8-0.9 5-2.7 6.8-1.8 1.7-4.2 2.6-7.2 2.6s-5.4-0.9-7.2-2.6c-1.8-1.7-2.7-4-2.7-6.7v-3.7zM604.1 847.8h15v10.5h-15v17.2h-11.4v-17.2h-15.1v-10.5h15.1v-16.3h11.4zM785.5 849.9h-37.2v-9.5h37.2v9.5z m0 17.9h-37.2v-9.5h37.2v9.5z" fill="#FFFFFF" p-id="26384"></path></svg>