<?xml version="1.0" standalone="no"?><!DOCTYPE svg PUBLIC "-//W3C//DTD SVG 1.1//EN" "http://www.w3.org/Graphics/SVG/1.1/DTD/svg11.dtd"><svg t="1646635894694" class="icon" viewBox="0 0 1024 1024" version="1.1" xmlns="http://www.w3.org/2000/svg" p-id="23381" xmlns:xlink="http://www.w3.org/1999/xlink" width="200" height="200"><defs><style type="text/css"></style></defs><path d="M724.888924 608.338326a80.720063 80.720063 0 0 1-7.965047 6.258251l-3.777708 2.730874C532.043754 745.337137 513.621738 894.738664 512.051486 934.450113c0-0.341359 0-0.682718-0.07965-1.137864-10.8666-161.349098-141.004092-271.949466-187.986491-306.768101a341.450192 341.450192 0 1 1 400.903579-18.205822zM512.01735 944.690888s-0.182058-3.641164 0.079651-10.240775C525.22795 1129.707554 512.01735 944.690888 512.01735 944.690888z" fill="#EE6B02" p-id="23382"></path><path d="M512.01735 0.263871a341.268134 341.268134 0 0 1 212.871574 608.074455 80.720063 80.720063 0 0 1-7.965047 6.258251l-3.777708 2.730874a647.956584 647.956584 0 0 0-33.987994 25.82951l-405.193326-546.174661A340.118891 340.118891 0 0 1 512.01735 0.263871z" fill="#FFFFFF" opacity=".2" p-id="23383"></path><path d="M681.388388 193.70073a95.682973 95.682973 0 0 1 21.619414 2.389514 64.312066 64.312066 0 0 1 2.412271 21.619413 29.117937 29.117937 0 0 0-4.813164 7.168543h-2.412271v4.779028c-4.813164 4.09631-9.626328 8.078834-14.439493 12.061357v4.779028c-4.813164 3.982524-9.626328 7.965047-14.439493 12.061358v4.779028l-14.439492 11.94757v4.779029c-4.813164 4.09631-9.637707 8.078834-14.450871 12.061357v4.779028l-14.439493 11.947571v4.892815l-12.027221 9.558056v4.779028c-4.824543 3.982524-9.637707 8.078834-14.450871 12.061357v4.779029l-14.439493 11.94757v4.892815l-14.439493 11.947571v4.779028c-4.813164 3.982524-9.626328 8.078834-14.439492 12.061357v4.779028l-14.450871 11.947571v4.892815l-4.813165 2.389514v2.389514l-7.214056 4.779028v4.779029c-4.813164 3.982524-9.637707 7.965047-14.450872 12.061357v4.779028l-14.439492 11.947571v4.779028c-4.813164 4.09631-9.626328 8.078834-14.439493 12.061357v4.779028c-8.02194 7.168542-16.043881 14.450871-24.065821 21.619414V500.923976h-19.264035v-2.389514h-4.813164l-4.813165-7.168542h-2.400892v-4.892815l-7.225436-4.779028-2.412271-7.168543-4.813165-2.389514v-4.779028l-4.813164-2.389514c-0.796505-2.503301-1.604388-4.892815-2.400893-7.282329l-7.225435-4.779028v-4.779029l-7.225436-4.779028v-4.779028c-2.400893-1.706796-4.813164-3.299805-7.214057-4.892815v-4.779028l-7.225435-4.779029v-4.779028l-7.214057-4.779028v-4.892815l-7.225436-4.779028v-4.779028l-7.225436-4.779029v-4.779028c-2.400893-1.593009-4.813164-3.186019-7.214057-4.892815v-4.779028l-7.225435-4.779028v-4.779028l-7.214057-4.779029a55.75533 55.75533 0 0 1-7.225436-33.68077 50.896651 50.896651 0 0 0 12.0386-9.558057 45.605584 45.605584 0 0 1 21.619414 2.389514l4.813164 7.168543c2.400893 0.796505 4.813164 1.593009 7.214057 2.5033l4.813164 7.168543h4.813164l7.225436 9.558056h4.813164l4.813164 7.168543h4.813164c2.412271 3.299805 4.813164 6.485824 7.225436 9.671843h4.813164l7.225436 9.558056h4.813164l2.400893 4.779028h2.412271c0.796505 1.593009 1.604388 3.299805 2.400893 4.892815h4.813164c7.043377 5.006601 1.137864 7.623688 14.450871 9.558057a110.543476 110.543476 0 0 1 16.840386-14.450872l16.851764-19.116113h4.938329c0.807883-1.593009 1.604388-3.186019 2.412271-4.892814l9.626329-7.168543 12.0386-14.337085h4.813164c6.417552-7.282329 12.835105-14.450871 19.252657-21.619413l7.225435-4.779029v-2.5033h4.813164c8.02194-8.761552 16.043881-17.523104 24.065821-26.398442h4.813165c8.02194-8.761552 16.043881-17.523104 24.065821-26.398442h4.824542l14.439493-16.726599c3.208776-2.389514 6.417552-4.779028 9.626328-7.282329l2.400893-4.779028h4.813164c6.428931-7.168542 12.846483-14.337085 19.264036-21.619414z" fill="#FFFFFF" p-id="23384"></path></svg>