<?xml version="1.0" standalone="no"?><!DOCTYPE svg PUBLIC "-//W3C//DTD SVG 1.1//EN" "http://www.w3.org/Graphics/SVG/1.1/DTD/svg11.dtd"><svg t="1648433980936" class="icon" viewBox="0 0 1024 1024" version="1.1" xmlns="http://www.w3.org/2000/svg" p-id="35354" xmlns:xlink="http://www.w3.org/1999/xlink" width="200" height="200"><defs><style type="text/css">@font-face { font-family: feedback-iconfont; src: url("//at.alicdn.com/t/font_1031158_u69w8yhxdu.woff2?t=1630033759944") format("woff2"), url("//at.alicdn.com/t/font_1031158_u69w8yhxdu.woff?t=1630033759944") format("woff"), url("//at.alicdn.com/t/font_1031158_u69w8yhxdu.ttf?t=1630033759944") format("truetype"); }
</style></defs><path d="M123.5 422.9l109.2-21.5 7.2-51-109.2 21.5-7.2 51zM402 671.4c8.4 0.1 16.5-2.8 22.8-8.3 6.5-5.3 10.6-12.9 11.6-21.3L448 559h29.1l5.4-38.9h-29.1l3.6-26.4h29.1l6.3-43.4h-84.2l3.6-27.3h72.5l5.4-40.3h-72.1l4.5-31.3h-99.4l15.2 12.5-2.7 18.8h-73.9l-5.4 40.3h73.4l-3.6 27.3h-84.6l-6.3 43.4h142.8l-3.6 26.4H233.6l-5.4 38.9h140.6l-9.8 70.7-39.8 41.6H402z m-206.9 0l28.2-201.9 7.2-51L120.8 440l-7.2 51 26.4-4.9-26 185.3h81.1z m140.6-37.6l-21-59.1H239l21.5 59.1h75.2z m316.5 39L739.1 444h30.4l-26 187.1-40.3 41.6h80.1c8.3 0 16.3-2.9 22.6-8.3 6.6-5.3 11-12.9 12.3-21.3l34-241.8H755l19.3-51H672.4l11.6 13.9-14.3 37.2H563.1l-6.3 42.5h96.7l-86.4 228.8h85.1v0.1z m247.2-62.7l13-153.1h-51l-13 153.1h51z m-330.9-4.5L622.7 461h-51l-54.2 144.6h51z" fill="#8CC63F" p-id="35355"></path><path d="M140.5 251.6c-24.4 0-47.8 8.9-65 24.8-17.2 15.9-26.9 37.4-26.9 59.8v338.3c0 22.4 9.7 43.9 26.9 59.8 17.3 15.9 40.6 24.8 65 24.8h735.8c50.8 0 92-37.9 92-84.6V336.1c0-46.7-41.2-84.6-92-84.6H140.5z m0-28.2h735.8c67.7 0 122.6 50.5 122.6 112.8v338.3c0 62.3-54.9 112.8-122.6 112.8H140.5c-67.7 0-122.6-50.5-122.6-112.8V336.1c-0.1-62.2 54.8-112.7 122.6-112.7z m0 0" fill="#80D028" p-id="35356"></path></svg>