<?xml version="1.0" standalone="no"?><!DOCTYPE svg PUBLIC "-//W3C//DTD SVG 1.1//EN" "http://www.w3.org/Graphics/SVG/1.1/DTD/svg11.dtd"><svg t="1648433615284" class="icon" viewBox="0 0 1024 1024" version="1.1" xmlns="http://www.w3.org/2000/svg" p-id="25632" xmlns:xlink="http://www.w3.org/1999/xlink" width="200" height="200"><defs><style type="text/css">@font-face { font-family: feedback-iconfont; src: url("//at.alicdn.com/t/font_1031158_u69w8yhxdu.woff2?t=1630033759944") format("woff2"), url("//at.alicdn.com/t/font_1031158_u69w8yhxdu.woff?t=1630033759944") format("woff"), url("//at.alicdn.com/t/font_1031158_u69w8yhxdu.ttf?t=1630033759944") format("truetype"); }
</style></defs><path d="M186.88 696.32h209.92c-12.8 17.92-23.04 33.28-30.72 46.08-74.24 0-102.4-2.56-84.48-2.56H174.08c-43.52 0-74.24-12.8-89.6-35.84-17.92 12.8-35.84 28.16-51.2 43.52L25.6 693.76c12.8-10.24 25.6-17.92 38.4-25.6-12.8 7.68-12.8 5.12 5.12-5.12l28.16-102.4H64L76.8 512h79.36l-40.96 153.6c10.24 20.48 33.28 30.72 71.68 30.72z m-76.8-289.28l48.64-25.6 7.68 15.36c7.68 15.36 17.92 33.28 25.6 53.76l-51.2 28.16c-7.68-25.6-17.92-48.64-30.72-71.68z m104.96-12.8h240.64l-10.24 43.52-89.6 43.52H435.2L389.12 640c-5.12 25.6-25.6 43.52-53.76 43.52h-43.52v-20.48-17.92c5.12 0 12.8 0 17.92 2.56h10.24c10.24 0 17.92-7.68 20.48-17.92l2.56-7.68h-51.2l-10.24 58.88H235.52l15.36-56.32H202.24l-15.36 56.32H140.8l53.76-202.24h71.68c-5.12-2.56-10.24-7.68-15.36-10.24-5.12-5.12-12.8-10.24-20.48-15.36l25.6-23.04H204.8l10.24-35.84z m2.56 174.08l-7.68 23.04h48.64l7.68-23.04H217.6z m15.36-53.76l-7.68 23.04h48.64l7.68-23.04H232.96z m81.92-51.2l64-30.72h-110.08c5.12 2.56 12.8 7.68 23.04 15.36s17.92 12.8 23.04 15.36z m-2.56 104.96l-7.68 23.04h51.2l7.68-23.04h-51.2z m58.88-30.72l7.68-23.04h-51.2l-7.68 23.04h51.2zM458.24 583.68l12.8-46.08h76.8l15.36-61.44h-15.36c-12.8 20.48-30.72 38.4-46.08 56.32-5.12-15.36-12.8-28.16-23.04-40.96 30.72-33.28 56.32-71.68 76.8-112.64l48.64 7.68c-10.24 15.36-17.92 28.16-23.04 40.96h94.72l-12.8 46.08H614.4l-17.92 64h58.88l-12.8 46.08h-64c0 2.56-2.56 7.68-5.12 10.24 0 2.56-2.56 7.68-5.12 10.24l53.76 76.8-48.64 33.28c-10.24-20.48-23.04-40.96-33.28-58.88-25.6 38.4-61.44 69.12-99.84 94.72l-5.12-17.92c-2.56-10.24-7.68-20.48-12.8-30.72 46.08-30.72 81.92-71.68 104.96-120.32h-69.12z m202.24 156.16h-51.2l87.04-327.68h161.28l-87.04 327.68h-51.2l7.68-30.72H665.6l-5.12 30.72z m81.92-79.36l53.76-199.68h-58.88l-53.76 199.68H742.4zM775.68 350.72l-38.4-61.44-25.6 15.36 35.84 61.44zM834.56 345.6v-71.68l-30.72 2.56v69.12zM967.68 350.72L906.24 384l15.36 28.16 61.44-35.84zM926.72 437.76v30.72l71.68 2.56v-30.72zM921.6 304.64l-25.6-15.36-35.84 61.44 25.6 15.36z" fill="#FD4D37" p-id="25633"></path></svg>