<?xml version="1.0" standalone="no"?><!DOCTYPE svg PUBLIC "-//W3C//DTD SVG 1.1//EN" "http://www.w3.org/Graphics/SVG/1.1/DTD/svg11.dtd"><svg t="1646634295855" class="icon" viewBox="0 0 1706 1024" version="1.1" xmlns="http://www.w3.org/2000/svg" p-id="18006" xmlns:xlink="http://www.w3.org/1999/xlink" width="333.203125" height="200"><defs><style type="text/css"></style></defs><path d="M1626.225778 1024H80.270222A80.384 80.384 0 0 1 0 943.672889V80.270222C0 36.010667 36.067556-0.056889 80.270222-0.056889h1545.955556c44.316444 0 80.327111 36.067556 80.327111 80.327111v863.402667A80.270222 80.270222 0 0 1 1626.225778 1024zM80.270222 53.475556a26.737778 26.737778 0 0 0-26.737778 26.794666v863.402667c0 14.791111 12.003556 26.794667 26.737778 26.794667h1545.955556a26.851556 26.851556 0 0 0 26.908444-26.794667V80.270222a26.851556 26.851556 0 0 0-26.908444-26.794666H80.270222z" p-id="18007"></path><path d="M128.398222 328.362667h66.901334v106.552889h465.123555V235.064889H99.612444V177.493333h626.119112v362.439111h-65.365334v-47.445333H195.299556v226.304c0 47.786667 22.528 71.68 67.640888 71.68h383.431112c44.600889 0 71.566222-16.099556 80.896-48.355555 9.329778-31.573333 16.327111-73.898667 20.992-126.805334 20.195556 8.760889 42.496 16.554667 66.901333 23.324445-7.281778 53.816889-15.075556 96.881778-23.324445 129.137777-15.530667 58.538667-59.107556 87.893333-130.673777 87.893334H247.409778c-79.36 0-119.011556-40.903111-119.011556-122.88V328.362667zM1085.041778 703.203556c1.137778 23.950222 2.901333 46.307556 5.461333 67.640888a1737.386667 1737.386667 0 0 0-143.815111 101.888l-35.783111-51.313777c17.692444-15.473778 26.453333-37.774222 26.453333-66.901334v-300.942222h-93.354666v-55.978667H995.555556v368.583112c26.055111-17.464889 55.751111-38.456889 89.486222-62.976zM934.115556 146.375111a3084.856889 3084.856889 0 0 1 118.272 125.212445l-53.589334 44.316444a2293.248 2293.248 0 0 0-112.014222-130.673778l47.331556-38.855111z m122.083555 479.857778h282.339556c10.524444-42.439111 14.392889-109.909333 11.662222-202.183111h59.107555c1.536 97.507556-1.479111 164.807111-9.329777 202.183111h206.961777v54.442667h-218.624a249.912889 249.912889 0 0 1-11.605333 27.249777c77.255111 41.472 153.144889 84.138667 227.896889 127.544889l-38.968889 53.020445a5141.788444 5141.788444 0 0 0-219.249778-132.209778c-46.592 56.433778-133.006222 103.310222-259.072 140.8a751.217778 751.217778 0 0 0-38.912-55.921778c150.528-40.448 242.460444-93.752889 276.138667-160.199111h-268.401778v-54.727111h0.056889z m6.314667-276.821333h237.283555V271.587556h-208.440889v-54.442667h208.440889V126.919111h59.107556v90.225778h222.321778v54.442667h-222.321778v77.767111h238.023111l-9.272889 152.462222c-18.659556-2.048-38.741333-3.413333-59.960889-3.868445l8.419556-94.094222h-473.6v-54.442666z m26.510222 188.984888l27.932444-41.984c48.696889 23.324444 96.142222 48.526222 142.392889 75.377778l-30.321777 46.648889a1791.601778 1791.601778 0 0 0-140.003556-80.042667z m56.775111-84.764444l28.785778-42.780444c48.64 23.836444 95.402667 48.241778 140.003555 73.102222l-31.118222 47.445333a1837.738667 1837.738667 0 0 0-137.671111-77.767111z" p-id="18008"></path></svg>