<?xml version="1.0" standalone="no"?><!DOCTYPE svg PUBLIC "-//W3C//DTD SVG 1.1//EN" "http://www.w3.org/Graphics/SVG/1.1/DTD/svg11.dtd"><svg t="1646633981780" class="icon" viewBox="0 0 2048 1024" version="1.1" xmlns="http://www.w3.org/2000/svg" p-id="11936" xmlns:xlink="http://www.w3.org/1999/xlink" width="400" height="200"><defs><style type="text/css"></style></defs><path d="M0 0m190.712364 0l1144.274182 0q190.712364 0 190.712364 190.712364l0 381.424727q0 190.712364-190.712364 190.712364l-1144.274182 0q-190.712364 0-190.712364-190.712364l0-381.424727q0-190.712364 190.712364-190.712364Z" fill="#C92929" fill-opacity=".2" p-id="11937"></path><path d="M423.190735 90.206948h59.502258v79.956159h207.638086v57.022996h-207.638086V323.257457h240.48829v57.022996h-191.522891c40.907802 72.327664 109.516575 137.408258 205.778641 195.241783l-41.527618 53.304105c-99.599532-74.377822-169.82936-157.242344-210.737162-248.545888h-2.47926V657.957655H423.190735V380.280453h-2.479261c-43.816166 100.41006-116.096151 183.465294-216.935313 249.165704l-34.089835-55.163552C262.2295 523.45776 330.40917 458.806269 374.225336 380.280453H182.702444V323.257457h240.488291V227.186103H219.891355V170.163107h203.29938V90.206948z m583.865902 33.47002h135.739525v-40.907802h57.642812v40.907802h135.119709v53.304106h-135.119709v42.147432h146.896198v37.188911a830.552344 830.552344 0 0 1-40.907802 117.764885l-57.022997-16.115195a492.037898 492.037898 0 0 0 35.329465-84.294865h-303.089624V219.128506h161.151948v-42.147432h-135.739525V123.676968z m-24.792607 318.585004h88.013755a419.757913 419.757913 0 0 0-84.91468-58.262628l27.891684-40.907802a452.941864 452.941864 0 0 1 92.352462 59.502258l-26.032238 39.668172h75.617452c2.050158-11.156673 3.528179-23.98208 4.338707-38.428542V289.167622h57.022996V403.83343c-0.429103 9.058837-1.430343 21.931922-3.099076 38.428542h143.797123v54.543736h-155.573611l-5.578337 15.495379a924.621218 924.621218 0 0 1 166.730284 101.029875l-32.850204 50.20503c-52.922681-44.626693-105.177869-80.146871-156.813241-106.608212l-10.536858 14.875565c-32.230389 39.668172-84.723968 70.039116-157.433057 91.112831l-31.610574-48.965399c71.040355-21.073716 119.195227-47.296666 144.416937-78.716528 7.437782-9.917043 14.684852-22.742449 21.693532-38.428541h-157.433056V442.261972z m83.055234-161.771763a397.492244 397.492244 0 0 1 86.15431 55.163551l-27.891683 42.147433a369.981986 369.981986 0 0 0-84.91468-58.262628l26.652053-39.048356z m-194.621967-187.804a787.403672 787.403672 0 0 1 101.029874 91.112832l-40.287986 40.907802c-25.22171-29.751129-59.311545-60.312785-102.269505-91.732647l41.527617-40.287987z m-84.294865 179.746403h140.078231v254.124224c17.354825-18.165353 30.370944-32.039677 39.048357-41.527617l16.115194 61.981518a772.432751 772.432751 0 0 1-105.368581 94.211908l-22.313346-52.68429c10.346146-9.058837 15.49538-19.643373 15.495379-31.610575V328.835793h-83.055234V272.432612z" fill="#C92929" p-id="11938"></path></svg>