<?xml version="1.0" standalone="no"?><!DOCTYPE svg PUBLIC "-//W3C//DTD SVG 1.1//EN" "http://www.w3.org/Graphics/SVG/1.1/DTD/svg11.dtd"><svg t="1640742947005" class="icon" viewBox="0 0 1281 1024" version="1.1" xmlns="http://www.w3.org/2000/svg" p-id="2583" xmlns:xlink="http://www.w3.org/1999/xlink" width="250.1953125" height="200"><defs><style type="text/css"></style></defs><path d="M659.8159 1015.430962c-165.382427 0-299.916318-134.533891-299.916318-299.916318s134.533891-299.916318 299.916318-299.916318 299.916318 134.533891 299.916318 299.916318-134.533891 299.916318-299.916318 299.916318z m0-582.69456c-155.956485 0-282.778243 126.821757-282.778243 282.778242s126.821757 282.778243 282.778243 282.778243 282.778243-126.821757 282.778242-282.778243-126.821757-282.778243-282.778242-282.778242z" fill="#FF5B5B" p-id="2584"></path><path d="M318.768201 1024S210.798326 972.157322 162.811715 931.454393l72.408369-18.851883-20.994143-81.405857s83.548117 43.702092 158.527197 65.124686l-67.695397 77.121339 13.71046 50.557322z" fill="#E65353" p-id="2585"></path><path d="M274.209205 941.308787L318.339749 1024 372.753138 895.464435z" fill="#CC4949" p-id="2586"></path><path d="M996.579079 1024s107.969874-51.842678 155.956486-92.545607l-72.408368-18.851883 20.994142-81.405857s-83.548117 43.702092-158.527197 65.124686l67.695398 77.121339-13.710461 50.557322z" fill="#E65353" p-id="2587"></path><path d="M1041.138075 941.308787L997.007531 1024 942.594142 895.464435z" fill="#CC4949" p-id="2588"></path><path d="M657.67364 876.1841c211.65523 0 319.196653-70.694561 319.196653-70.69456l64.267782 138.389958S922.456904 1024 657.67364 1024 274.209205 943.879498 274.209205 943.879498L338.476987 805.48954s107.541423 70.694561 319.196653 70.69456z" fill="#FF5B5B" p-id="2589"></path><path d="M964.016736 895.464435c0 9.425941-7.712134 17.138075-17.138075 17.138075s-17.138075-7.712134-17.138075-17.138075 7.712134-17.138075 17.138075-17.138075 17.138075 7.712134 17.138075 17.138075M377.037657 895.464435c0 9.425941-7.712134 17.138075-17.138075 17.138075s-17.138075-7.712134-17.138076-17.138075 7.712134-17.138075 17.138076-17.138075 17.138075 7.712134 17.138075 17.138075M521.425941 913.887866c5.141423 3.427615 8.99749 7.283682 12.853557 10.711297l-5.569875 5.569875c-2.999163-3.427615-7.283682-6.85523-12.853556-11.139749l5.569874-5.141423z m-1.713807 17.138075c4.712971 3.427615 8.569038 7.283682 11.996653 10.711297l-5.569875 5.569875c-2.999163-3.427615-6.85523-6.85523-11.996653-11.139749l5.569875-5.141423z m7.283682 20.565691l6.85523 2.999163c-2.999163 8.99749-6.85523 17.566527-10.711297 25.707113l-7.712134-3.427615c4.284519-8.569038 8.140586-16.709623 11.568201-25.278661z m8.569038-26.992469h18.423431c-1.285356-3.427615-2.570711-6.85523-4.284519-9.854393l6.85523-2.14226c2.142259 4.284519 3.427615 8.140586 4.712971 11.996653h17.566527v7.283682H561.271967v14.995816h15.852719v7.283682H561.271967v16.709624h19.280334v7.283682h-46.701255v-7.283682h19.708787v-16.709624h-15.85272V946.878661h15.85272v-14.567364H535.564854v-7.712134z m50.985774 16.709624h8.140585v-25.707113h22.70795v25.707113h6.426778v-25.707113h22.70795v25.707113h7.283682v7.283682h-7.283682v23.564853c0 5.141423-2.570711 7.283682-8.140586 7.283682h-6.426778l-2.142259-6.85523c2.142259 0 3.856067 0.428452 5.998326 0.428452 1.713808 0 2.999163-1.285356 2.999163-3.427615v-20.994142h-8.140585v1.285355c0 12.425105-2.570711 22.70795-6.855231 30.420084l-5.569874-5.141423c3.427615-6.426778 5.141423-14.995816 5.141423-25.278661v-1.713807H616.970711v23.564853c0 5.141423-2.142259 7.283682-6.85523 7.283682h-6.426778l-2.142259-7.283682c2.142259 0 4.284519 0.428452 6.426778 0.428452 1.285356 0 2.142259-1.285356 2.142259-2.999163v-20.994142h-7.712134v1.285355c0 12.853556-2.570711 23.136402-7.712134 30.848536l-5.569874-5.141423c3.856067-6.426778 5.998326-14.995816 5.998326-25.278661v-1.713807H586.979079v-6.85523z m51.842677 0v-18.851883h-8.140585v18.851883h8.140585z m-28.277824 0v-18.851883h-7.712134v18.851883h7.712134zM711.230126 912.60251c3.427615 2.570711 5.998326 5.141423 8.569037 7.712134l-3.427615 3.427615h8.569038v7.283682h-21.422594c0.428452 8.569038 1.285356 14.995816 2.570711 19.280335 0.428452 0.856904 0.428452 2.142259 0.856904 2.999163 2.999163-5.141423 5.141423-11.139749 7.283682-17.566527l6.85523 2.999163c-2.999163 9.425941-6.426778 17.138075-10.711297 23.564854 0.856904 1.285356 1.285356 2.570711 2.142259 3.856067 2.142259 2.999163 3.427615 4.712971 4.712971 4.712971 0.856904 0 1.713808-3.427615 2.570711-10.282846l6.85523 3.856067c-1.713808 10.282845-4.712971 15.424268-8.140585 15.424268-2.999163 0-6.426778-2.142259-10.282846-6.426778-0.856904-1.285356-2.142259-2.570711-2.999163-4.284519-4.712971 5.141423-10.282845 9.425941-16.709623 11.996653l-4.284519-6.426779c6.85523-2.999163 12.853556-7.283682 17.566527-13.282008-0.856904-2.570711-1.713808-5.141423-2.570711-8.140586-1.713808-5.998326-2.570711-13.282008-2.999163-21.851046h-22.70795v10.282845h17.994979c-0.428452 13.71046-0.856904 21.851046-2.14226 25.278662-1.285356 2.999163-3.856067 4.712971-7.712133 4.71297-1.713808 0-3.856067 0-5.998327-0.428452l-2.142259-6.85523c2.999163 0.428452 5.141423 0.428452 7.283682 0.428452 1.285356 0 2.142259-0.856904 2.142259-2.142259 0.428452-1.713808 0.856904-6.426778 0.856904-13.71046h-10.282845c-0.428452 13.71046-3.427615 24.421757-8.99749 32.562343l-5.569874-5.141423c4.712971-6.426778 6.85523-15.85272 6.85523-27.42092v-24.421758h29.991632v-10.711297h7.712134c0 3.856067 0 7.283682 0.428452 10.711297h10.282845c-1.713808-2.142259-4.284519-4.284519-6.85523-6.426778l3.856067-5.569875z m30.848535 15.424268h-9.854393v-7.283682h26.992468v7.283682H749.790795v30.420084c3.427615-0.856904 6.85523-2.142259 10.282845-3.427615v7.712134c-8.569038 2.999163-17.138075 5.569874-26.564017 7.283682l-2.142259-7.712134c3.427615-0.428452 6.85523-1.285356 10.711297-2.14226v-32.133891z m29.134728-14.567364h7.712134v13.71046h17.994979c0 24.421757-0.428452 38.989121-1.285356 44.987448-0.856904 5.141423-5.141423 7.712134-12.853556 7.712134-1.285356 0-3.856067 0-6.85523-0.428452l-1.713808-7.283682c2.999163 0.428452 5.569874 0.428452 7.712134 0.428452 3.856067 0 6.426778-1.713808 6.85523-4.284519 0.428452-3.427615 0.856904-14.567364 0.856904-33.847699h-10.711297v0.428452c-0.428452 20.994142-5.998326 36.41841-16.709623 45.844352l-6.426779-5.569875c10.282845-8.569038 15.424268-21.851046 15.424268-40.702929v-0.428451h-10.711297v-7.283682h10.711297v-13.282009z" fill="#FFFFFF" p-id="2590"></path><path d="M757.074477 217.653556c-1.713808-5.141423-12.425105-10.282845-17.138075-11.5682-2.142259-0.428452-4.712971-1.285356-7.283682-2.14226-3.427615-1.285356-7.283682-2.142259-11.139749-2.999163 3.856067 8.140586 12.853556 18.851883 21.851046 23.136402 3.856067 1.713808 7.283682 1.713808 9.854393 0 4.284519-2.999163 3.856067-5.141423 3.856067-5.569875v-0.856904m-78.835146 44.130544l1.285355-3.856067c5.998326 2.142259 12.853556 0.428452 17.566527-3.427615 4.712971-4.284519 7.283682-10.711297 5.998327-17.138075-0.428452-3.427615-2.142259-6.426778-3.427615-9.425941-2.142259-4.284519-4.284519-8.99749-4.284519-14.138912 0.428452-6.85523 2.570711-11.996653 6.426778-14.995816 3.856067-2.570711 8.99749-3.427615 14.138912-2.570712-1.285356-8.569038 1.713808-17.566527 8.99749-24.421757 8.140586-8.140586 20.137238-12.853556 30.848535-11.568201 11.139749 1.285356 21.422594 8.569038 26.135565 18.423431l-3.427615 1.713808c-4.284519-8.99749-13.282008-15.424268-23.136402-16.281172-9.425941-1.285356-20.137238 2.999163-27.42092 10.282845-5.998326 6.426778-8.99749 13.71046-7.712134 21.422594 0 0.428452 0 0.856904 0.428452 1.285356 4.712971 0.856904 9.425941 2.142259 14.138912 3.856067 2.570711 0.856904 4.712971 1.285356 6.85523 2.142259 4.712971 1.285356 18.851883 7.283682 20.137239 15.424268 0.428452 2.570711 0 5.998326-5.569875 9.425942-3.856067 2.570711-8.569038 2.570711-13.71046 0-9.854393-4.284519-20.994142-17.994979-24.850209-27.420921-5.141423-0.856904-9.854393-0.428452-12.853557 1.713808-2.999163 2.142259-4.712971 5.998326-4.71297 11.996652 0 4.284519 1.713808 8.140586 3.856067 12.425105 1.713808 3.427615 2.999163 6.85523 3.856066 10.282845 1.285356 7.712134-1.285356 15.85272-7.283682 20.565691-6.426778 4.712971-14.995816 6.426778-22.279497 4.284518" fill="#FE9400" p-id="2591"></path><path d="M1204.378243 501.288703c37.275314-2.570711 61.697071 21.422594 47.558159 62.553975-14.138912 41.559833-53.556485 42.416736-69.837657 9.425941l5.141422-8.140586s30.848536 53.556485 56.127197 0.856904c25.278661-53.984937-41.131381-56.9841-41.131381-56.9841l2.14226-7.712134z" fill="#0F80E0" p-id="2592"></path><path d="M1262.909054 487.856736l14.995816 3.856067S1275.334159 528.131213 1245.770979 536.700251 1202.497339 509.279331 1202.497339 509.279331l2.142259-8.140586s19.708787 40.702929 44.987448 25.278661c20.56569-12.853556 13.282008-38.560669 13.282008-38.56067" fill="#0FEAFC" p-id="2593"></path><path d="M1187.240167 565.128033c44.558996 0.856904 34.704603 45.844351 14.995816 68.12385-25.707113 29.56318-71.979916 10.711297-70.266109-26.564017l10.282846-0.428452s-0.856904 29.56318 30.848535 31.70544 44.987448-44.130544 35.561507-57.412553-24.421757-8.140586-24.421758-8.140586l2.999163-7.283682z" fill="#0FEAFC" p-id="2594"></path><path d="M314.05523 313.198326l22.279498 14.995816 7.712134-14.995816-25.707113-12.425104zM1058.276151 488.435146l17.994979 12.853557 4.71297-26.135565-11.139749-2.142259zM224.080335 487.149791l2.570711 8.569037h22.279498l-15.85272-17.138075zM1034.282845 282.349791l2.999163 8.997489h22.279498l-15.852719-17.566527zM961.446025 116.967364l12.425105 6.85523v-32.562343h-12.425105zM562.985774 138.81841l8.140586 6.426778 23.136402-14.995816-11.996653-7.712134zM936.595816 340.190795v11.568201h14.138912l-6.85523-11.568201z" fill="#FFC534" p-id="2595"></path><path d="M1089.124686 393.74728l22.279498 14.567364 7.712134-14.567364-25.707113-12.853556zM786.637657 40.702929l7.712134-6.426778 23.993305 3.427615-9.425941 5.569874zM305.914644 218.51046l17.994979 13.282009 5.141423-26.135565-11.568201-2.570712zM774.212552 231.364017l12.425105 6.85523V205.656904h-12.425105zM69.409205 428.023431l8.140586 6.426778 23.136401-14.995816-11.996652-7.712134zM505.573222 22.70795l3.856067 10.711297 26.564016-5.569875-8.997489-17.566527z" fill="#0FEAFC" p-id="2596"></path><path d="M1198.379916 274.637657l17.566528 4.712971s13.282008-40.274477-33.419247-47.558159c-31.276987-4.712971-46.272803 36.41841-28.277825 50.557322l8.140586 3.856067s-11.996653-19.708787 0.428452-38.56067 49.700418-0.856904 35.561506 26.992469" fill="#C5073A" p-id="2597"></path><path d="M1162.389958 286.63431c31.705439-9.425941 20.994142-68.552301-19.708786-83.976569-39.846025-14.995816-56.9841 29.134728-56.984101 29.134728l6.85523 3.856067s15.424268-39.417573 47.986611-23.564854c65.124686 32.133891 13.71046 70.694561 13.71046 70.694561l8.140586 3.856067z" fill="#F72C53" p-id="2598"></path><path d="M207.799163 205.656904c16.709623 41.988285-25.707113 87.832636-57.412552 74.979079s-18.423431-38.560669-2.999163-44.130544l7.283682 4.712971s-34.276151 20.137238-1.285356 33.419247c32.990795 13.282008 56.9841-31.276987 46.701255-71.551465l7.712134 2.570712z" fill="#FE9400" p-id="2599"></path><path d="M228.793305 283.635146l7.712134 7.283682s-14.138912 30.420084-49.700418 12.853557-31.276987-90.831799 13.282008-101.114644l7.283682 2.999163S145.245188 235.220084 175.665272 284.063598c25.707113 40.702929 53.128033-0.428452 53.128033-0.428452M155.528033 240.361506c0.428452 26.992469-24.850209 34.704603-39.846025 10.711297-14.567364-23.993305 10.282845-38.989121 24.85021-32.990795l0.428451 7.283682s-31.705439-1.285356-19.708786 20.994143 23.564854 5.141423 25.707113-9.854394l8.569037 3.856067z" fill="#FFC534" p-id="2600"></path><path d="M107.112971 673.954812c-9.854393 9.854393-24.421757 16.709623-38.56067 17.138075-6.85523 0-13.282008-1.285356-18.851883-5.141423-2.142259-1.285356-3.856067-2.999163-5.569874-5.141422-6.426778-7.283682-10.711297-15.424268-12.425105-23.136402-0.856904-2.999163-1.285356-5.569874-1.285355-8.569037 0-2.570711 0.428452-5.141423 0.856903-7.283682 1.285356-5.569874 4.284519-10.711297 8.99749-14.995816 4.284519-3.856067 10.282845-5.998326 15.85272-5.998327h13.282008l5.998326 5.998327s-2.999163-0.856904-7.283682-0.856904c-6.426778 0-15.85272 0.856904-23.136401 6.426778-3.856067 2.999163-5.998326 6.426778-7.283682 10.711297-0.856904 2.999163-0.856904 5.569874-0.428452 8.569038 1.713808 15.85272 17.994979 32.562343 37.703765 29.991632 2.570711-0.428452 4.712971-0.856904 7.283683-1.713808 9.425941-3.427615 15.85272-8.569038 19.708786-14.567364 9.854393-13.282008 7.283682-29.134728 7.283682-29.134728l7.712134 10.282845c2.570711 9.425941-1.713808 19.280335-9.854393 27.420921M138.81841 683.380753c-30.420084 4.284519-32.562343 31.705439-8.569038 49.700419 23.993305 17.566527 44.130544-11.996653 44.130544-11.996653l-4.284519-5.141423s-18.851883 25.278661-34.27615 14.567364c-15.424268-10.711297-22.70795-38.989121 9.425941-37.275314l-6.426778-9.854393z" fill="#C5073A" p-id="2601"></path><path d="M74.979079 626.825105s-8.99749 33.847699-38.132217 25.278661c-2.142259-0.428452-4.284519-1.285356-6.426778-2.570712-2.142259-0.856904-4.284519-2.142259-6.85523-3.856067-2.570711-1.713808-5.569874-3.856067-8.569038-5.998326-7.712134-5.998326-12.425105-12.425105-14.995816-18.423431h13.282008c0 0.428452 0 0.428452 0.428452 0.856904 4.712971 11.139749 10.711297 17.566527 17.566527 20.137238 1.285356 0.428452 2.142259 0.856904 3.427616 0.856904 0.856904 0.428452 2.142259 0.428452 2.999163 0.428452 12.853556 0.856904 25.707113-8.140586 29.991631-17.138075 0.856904-1.713808 1.285356-3.427615 1.713808-5.141423l5.569874 5.569875zM108.826778 636.679498c-40.274477 16.281172-42.845188 40.702929-21.422594 68.980753 20.994142 28.277824 62.553975 13.71046 57.841004-12.853556l-5.998326-9.854394s0.856904 27.849372-20.56569 29.991632-40.702929-22.70795-36.846862-42.845188c3.856067-20.137238 28.277824-23.564854 28.277824-23.564854l-1.285356-9.854393zM261.355649 664.957322l20.994142 13.71046 6.85523-13.71046-23.993306-11.996653zM836.766527 164.097071l7.283682-5.998326 22.279498 2.999163-8.569038 5.141423zM1192.810042 721.084519l16.709623 12.425104 4.712971-24.421757-10.711297-2.142259z" fill="#F72C53" p-id="2602"></path><path d="M1009.077021 17.994979L1013.789992 1.285356l10.282845 8.569037-3.427615 11.996653z" fill="#F72C53" p-id="2603"></path><path d="M1197.523013 311.056067l4.71297-17.138075 9.854394 8.569037-2.999164 11.996653zM509.000837 274.209205l11.996653 6.426778v-30.420083h-11.996653zM943.879498 195.80251l7.712134 6.426779 21.422594-14.567364-11.568201-6.85523zM117.395816 595.548117l7.712134 5.998327 21.422594-14.138913-11.139749-7.283682zM645.248536 145.67364l2.999163 9.854393 25.278661-3.856066-8.140586-16.709624zM376.180753 239.076151l3.427615 9.854393 24.850209-5.141423-8.569037-16.281171z" fill="#F72C53" p-id="2604"></path><path d="M558.272803 639.678661h5.569875v8.140586h19.708786v-8.569038h5.569875v8.569038h14.995816v5.141422h-14.995816v9.425942h18.423431v5.569874h-19.280335c4.712971 5.569874 11.996653 10.282845 21.851046 13.282009l-2.570711 5.141422c-11.996653-4.712971-20.137238-10.711297-25.278661-18.423431H565.556485c-5.141423 7.283682-13.282008 13.71046-24.421757 18.423431l-2.999163-4.71297c9.425941-3.427615 16.709623-8.140586 21.422594-13.710461h-18.851883v-5.569874h17.138075v-9.425942H544.133891v-5.141422h14.138912v-8.140586z m5.141423 22.70795h19.708787v-9.425942h-19.708787v9.425942z m-10.282845 23.136402l4.71297 2.570711c-2.570711 6.85523-5.998326 12.425105-9.425941 17.566527l-4.712971-3.427615c3.856067-4.712971 6.85523-10.282845 9.425942-16.709623z m41.131381-2.570712c3.856067 6.426778 7.283682 13.282008 10.282845 20.994143l-5.141423 2.142259c-2.999163-8.140586-6.426778-15.424268-10.282845-21.422594l5.141423-1.713808z m-12.425105 1.713808c2.999163 5.998326 5.998326 12.853556 8.140586 19.708786l-5.141423 2.14226c-2.570711-7.712134-5.141423-14.567364-8.140586-20.565691l5.141423-1.285355z m-15.85272 25.278661h-7.712134l-1.285355-5.141423c2.570711 0.428452 4.712971 0.428452 6.85523 0.428452 1.713808 0 2.570711-1.285356 2.570711-3.427615v-26.135565h5.569875v27.420921c0 4.712971-2.142259 6.85523-5.998327 6.85523z m56.555649-55.698745h26.135565v-5.141422h-28.277825v-4.712971h28.277825v-5.141423h5.569874v5.141423h28.706276v4.712971h-28.706276v5.141422h26.135565v4.284519h-57.412552v-4.284519z m11.996652 22.279498h-7.283682v-13.71046h48.415063v13.71046h-6.426778l-2.999163 5.569874h19.708786v4.712971H616.970711v-4.712971h20.137239l-2.570712-5.569874z m28.706277 0h-22.70795l2.570711 5.569874h17.138075l2.999164-5.569874z m6.85523-4.284519v-5.569874h-37.703766v5.569874h37.703766z m6.426778 18.851883v19.280335h-5.141423v-2.999163h-39.846025v2.999163h-5.569874v-19.280335h50.557322z m-44.987448 11.568201h39.846025v-6.85523h-39.846025v6.85523z m103.256904-20.137239H728.368201l-1.285356-5.141422c1.713808 0.428452 3.856067 0.428452 5.569875 0.428452 1.285356 0 2.142259-0.856904 2.142259-2.999164v-19.708786h5.569875v20.994142c0 4.284519-1.713808 6.426778-5.569875 6.426778z m-31.705439-22.279498c-2.142259 2.570711-4.712971 5.141423-6.85523 7.283682l-3.427615-4.284518c6.85523-5.998326 12.853556-14.138912 17.138075-23.564854l5.569874 1.285356c-2.142259 4.284519-4.284519 8.569038-6.85523 12.425104v29.56318h-5.569874v-22.70795z m23.993305-20.56569l5.141423 1.285356c-0.856904 2.142259-2.142259 4.284519-2.999163 5.998326h30.848535v3.427615c-0.856904 3.856067-2.142259 7.712134-3.856067 11.139749l-5.141422-1.285356c1.285356-2.570711 2.570711-5.141423 3.427615-8.569037h-28.277825c-2.999163 4.284519-6.426778 8.140586-9.854393 11.568201l-3.427615-4.284519c5.998326-4.712971 10.711297-11.568201 14.138912-19.280335z m-25.278661 46.701255l5.141423 1.285356c-1.713808 7.283682-4.284519 13.71046-7.712134 19.280335l-4.712971-2.999163c3.427615-5.141423 5.569874-11.139749 7.283682-17.566528z m37.703766 22.70795H719.799163c-4.712971 0-7.283682-2.570711-7.283682-7.283682V685.523013h5.569875v14.995815c0 2.142259 0.856904 3.427615 2.999163 3.427616h17.138075c1.713808 0 2.570711-0.428452 3.427615-1.285356 0.856904-1.285356 1.285356-4.284519 1.713808-9.425942l5.141422 1.713808c-0.428452 6.85523-1.713808 10.711297-2.999163 12.425105-0.856904 1.285356-2.999163 1.713808-5.998326 1.713807z m13.282008-24.850209c5.141423 6.85523 8.569038 12.853556 11.139749 17.994979l-4.712971 3.427615c-2.570711-5.569874-6.426778-11.568201-11.139749-18.423431l4.712971-2.999163z m-27.849372-21.422594l4.284519 2.142259c-2.999163 5.998326-6.426778 11.139749-10.282846 15.424268l-4.284518-2.999163c4.284519-4.284519 7.712134-8.99749 10.282845-14.567364z m25.707113-0.428452c3.856067 4.712971 6.85523 9.854393 9.854393 15.424268l-4.712971 2.570711c-2.999163-5.998326-6.426778-11.139749-9.854393-15.85272l4.712971-2.142259z m-21.851046 20.994142c3.856067 4.284519 6.85523 8.140586 8.997489 11.568201l-4.284519 2.999163c-2.142259-3.427615-5.141423-7.712134-8.997489-11.996653l4.284519-2.570711z m53.984937-35.989958h7.283682l-1.285356 40.274477H784.066946l-1.285356-40.274477z m3.427615 46.272803c1.285356 0 2.570711 0.428452 3.427615 1.285356 0.856904 0.856904 1.285356 1.713808 1.285356 3.427615 0 1.285356-0.428452 2.570711-1.285356 3.427615-0.856904 0.856904-2.142259 1.285356-3.427615 1.285356s-2.570711-0.428452-3.427615-1.285356c-0.856904-0.856904-1.285356-2.142259-1.285356-3.427615s0.428452-2.570711 1.285356-3.427615c0.856904-1.285356 2.142259-1.285356 3.427615-1.285356z" fill="#FF5B5B" p-id="2605"></path></svg>