<?xml version="1.0" standalone="no"?><!DOCTYPE svg PUBLIC "-//W3C//DTD SVG 1.1//EN" "http://www.w3.org/Graphics/SVG/1.1/DTD/svg11.dtd"><svg t="1646640540533" class="icon" viewBox="0 0 1024 1024" version="1.1" xmlns="http://www.w3.org/2000/svg" p-id="26923" xmlns:xlink="http://www.w3.org/1999/xlink" width="200" height="200"><defs><style type="text/css"></style></defs><path d="M716.8 460.8v-51.2H413.01333333l83.62666667-83.62666667L460.8 290.13333333 290.13333333 460.8h426.66666667z m-409.6 102.4v51.2h303.78666667l-83.62666667 83.62666667L563.2 733.86666667l170.66666667-170.66666667H307.2z m0 0" p-id="26924"></path><path d="M512 102.4c-226.98666667 0-409.6 182.61333333-409.6 409.6s182.61333333 409.6 409.6 409.6 409.6-182.61333333 409.6-409.6-182.61333333-409.6-409.6-409.6z m0 768c-197.97333333 0-358.4-160.42666667-358.4-358.4s160.42666667-358.4 358.4-358.4 358.4 160.42666667 358.4 358.4-160.42666667 358.4-358.4 358.4z m0 0" p-id="26925"></path></svg>