<?xml version="1.0" standalone="no"?><!DOCTYPE svg PUBLIC "-//W3C//DTD SVG 1.1//EN" "http://www.w3.org/Graphics/SVG/1.1/DTD/svg11.dtd"><svg t="1648433450846" class="icon" viewBox="0 0 1024 1024" version="1.1" xmlns="http://www.w3.org/2000/svg" p-id="17889" xmlns:xlink="http://www.w3.org/1999/xlink" width="200" height="200"><defs><style type="text/css">@font-face { font-family: feedback-iconfont; src: url("//at.alicdn.com/t/font_1031158_u69w8yhxdu.woff2?t=1630033759944") format("woff2"), url("//at.alicdn.com/t/font_1031158_u69w8yhxdu.woff?t=1630033759944") format("woff"), url("//at.alicdn.com/t/font_1031158_u69w8yhxdu.ttf?t=1630033759944") format("truetype"); }
</style></defs><path d="M153.6 0h716.8C972.8 0 1024 51.2 1024 153.6v716.8c0 102.4-51.2 153.6-153.6 153.6H153.6C51.2 1024 0 972.8 0 870.4V153.6C0 51.2 51.2 0 153.6 0z" fill="#1989FA" p-id="17890"></path><path d="M304 380.8H252.8c6.4 3.2 19.2 9.6 41.6 19.2-6.4 6.4-12.8 16-19.2 28.8h38.4v41.6H240v25.6h67.2v41.6H240v89.6c0 12.8-3.2 22.4-6.4 28.8s-12.8 9.6-19.2 12.8-28.8 3.2-51.2 3.2c0-16-3.2-28.8-6.4-41.6l-6.4 16c-9.6-6.4-22.4-12.8-41.6-19.2 12.8-22.4 22.4-51.2 32-83.2l41.6 12.8c-6.4 22.4-16 44.8-25.6 67.2h19.2c9.6 0 12.8-6.4 16-16v-70.4H121.6v-41.6H192v-25.6H115.2v-41.6h41.6c-6.4-9.6-9.6-19.2-16-28.8l38.4-16c9.6 16 19.2 32 25.6 44.8h16c12.8-22.4 22.4-35.2 25.6-48H121.6v-41.6h67.2c-3.2-9.6-6.4-16-9.6-25.6l51.2-9.6c3.2 9.6 6.4 22.4 12.8 35.2h64v41.6z m179.2 96h-28.8V672h-48v-195.2h-32v22.4c0 80-16 140.8-51.2 182.4-16-16-32-28.8-48-38.4 12.8-12.8 25.6-28.8 32-48l-38.4 22.4c-9.6-19.2-19.2-38.4-28.8-54.4l38.4-19.2c9.6 12.8 19.2 28.8 32 51.2 9.6-25.6 16-54.4 16-89.6v-169.6c57.6-6.4 102.4-16 137.6-28.8l22.4 48c-35.2 9.6-70.4 16-112 19.2v51.2h112v51.2zM563.2 355.2h51.2v320h-51.2v-320z m48-32l44.8-16c12.8 19.2 22.4 38.4 35.2 60.8l-48 19.2c-9.6-25.6-22.4-44.8-32-64z m12.8 294.4l-3.2-41.6h28.8v-140.8h-22.4v-41.6h211.2v41.6h-25.6v131.2l32-3.2c0 16-3.2 28.8-3.2 41.6l-32 3.2v22.4h25.6c6.4 0 9.6-3.2 12.8-6.4s3.2-9.6 3.2-16v-230.4h-150.4v-44.8h201.6v278.4c0 22.4-3.2 38.4-9.6 48s-16 16-32 19.2-35.2 3.2-64 3.2c-3.2-9.6-3.2-22.4-6.4-28.8h-25.6V608l-140.8 9.6z m70.4-163.2H768v-22.4h-73.6v22.4z m0 57.6H768v-22.4h-73.6v22.4z m76.8 54.4V544h-73.6v25.6l73.6-3.2z" fill="#FFFFFF" p-id="17891"></path></svg>