<?xml version="1.0" standalone="no"?><!DOCTYPE svg PUBLIC "-//W3C//DTD SVG 1.1//EN" "http://www.w3.org/Graphics/SVG/1.1/DTD/svg11.dtd"><svg t="1640228173365" class="icon" viewBox="0 0 1024 1024" version="1.1" xmlns="http://www.w3.org/2000/svg" p-id="2049" xmlns:xlink="http://www.w3.org/1999/xlink" width="200" height="200"><defs><style type="text/css"></style></defs><path d="M512 512m-414 0a414 414 0 1 0 828 0 414 414 0 1 0-828 0Z" fill="#F0C48A" p-id="2050"></path><path d="M228.2 11.8h567.6v1000.6H228.2z" fill="#D3E6F8" p-id="2051"></path><path d="M512 917.2c-6.4 0-11.8-5.2-11.8-11.8V125c0-6.4 5.2-11.8 11.8-11.8 6.4 0 11.8 5.2 11.8 11.8v780.6c0 6.4-5.4 11.6-11.8 11.6z" fill="#4C4372" p-id="2052"></path><path d="M698.4 512L512 585.6 325.6 512l186.4-73.6z" fill="#FD919E" p-id="2053"></path><path d="M642.6 490l-184.2 76.8 53.6 18.8 186.4-73.6z" fill="#E8677D" p-id="2054"></path><path d="M731.8 15.8h63v996.6h-63zM618 188H406c-34.8 0-63.2-28.4-63.2-63.2 0-34.8 28.4-63.2 63.2-63.2h212c34.8 0 63.2 28.4 63.2 63.2 0 34.8-28.4 63.2-63.2 63.2zM618 836H406c-34.8 0-63.2 28.4-63.2 63.2 0 34.8 28.4 63.2 63.2 63.2h212c34.8 0 63.2-28.4 63.2-63.2 0-34.8-28.4-63.2-63.2-63.2z" fill="#A4CFF2" p-id="2055"></path><path d="M342.8 251.8h338.4V378H342.8zM342.8 646h338.4v126.2H342.8z" fill="#FFFFFF" p-id="2056"></path><path d="M795.8 1024H228.2c-6.4 0-11.8-5.2-11.8-11.8V11.8c0-6.4 5.2-11.8 11.8-11.8h567.6c6.4 0 11.8 5.2 11.8 11.8v1000.6c0 6.4-5.4 11.6-11.8 11.6zM240 1000.6h544V23.4H240v977.2z" fill="#4C4372" p-id="2057"></path><path d="M512 597.4c-1.4 0-3-0.2-4.4-0.8l-186.4-73.6c-4.4-1.8-7.4-6-7.4-11s3-9.2 7.4-11l186.4-73.6c2.8-1 5.8-1 8.6 0l186.4 73.6c4.4 1.8 7.4 6 7.4 11s-3 9.2-7.4 11l-186.4 73.6c-1.2 0.4-2.8 0.8-4.2 0.8zM357.6 512l154.4 61 154.4-61-154.4-61-154.4 61z" fill="#4C4372" p-id="2058"></path><path d="M635.6 188H392c-21 0-37.8-17-37.8-37.8h319.2c0 20.8-16.8 37.8-37.8 37.8zM635.6 962.2H392c-21 0-37.8-17-37.8-37.8h319.2c0 20.8-16.8 37.8-37.8 37.8z" fill="#7BABF1" p-id="2059"></path><path d="M618 199.8H406c-41.2 0-74.8-33.6-74.8-74.8s33.6-74.8 74.8-74.8h212c41.2 0 74.8 33.6 74.8 74.8S659.4 199.8 618 199.8zM406 73.6c-28.4 0-51.4 23-51.4 51.4s23 51.4 51.4 51.4h212c28.4 0 51.4-23 51.4-51.4S646.4 73.6 618 73.6H406zM618 973.8H406c-41.2 0-74.8-33.6-74.8-74.8 0-41.2 33.6-74.8 74.8-74.8h212c41.2 0 74.8 33.6 74.8 74.8 0.2 41.4-33.4 74.8-74.8 74.8z m-212-126.2c-28.4 0-51.4 23-51.4 51.4s23 51.4 51.4 51.4h212c28.4 0 51.4-23 51.4-51.4s-23-51.4-51.4-51.4H406z" fill="#4C4372" p-id="2060"></path><path d="M342.8 733.8h338.4v38.4H342.8zM342.8 337h338.4v38.4H342.8z" fill="#D3E6F8" p-id="2061"></path><path d="M681.2 784H342.8c-6.4 0-11.8-5.2-11.8-11.8V646c0-6.4 5.2-11.8 11.8-11.8h338.4c6.4 0 11.8 5.2 11.8 11.8v126.2c0 6.6-5.4 11.8-11.8 11.8z m-326.6-23.4h315v-102.8H354.6v102.8zM681.2 389.6H342.8c-6.4 0-11.8-5.2-11.8-11.8v-126.2c0-6.4 5.2-11.8 11.8-11.8h338.4c6.4 0 11.8 5.2 11.8 11.8V378c0 6.4-5.4 11.6-11.8 11.6z m-326.6-23.4h315v-102.8H354.6v102.8z" fill="#4C4372" p-id="2062"></path></svg>