<?xml version="1.0" standalone="no"?><!DOCTYPE svg PUBLIC "-//W3C//DTD SVG 1.1//EN" "http://www.w3.org/Graphics/SVG/1.1/DTD/svg11.dtd"><svg t="1651051351482" class="icon" viewBox="0 0 1024 1024" version="1.1" xmlns="http://www.w3.org/2000/svg" p-id="2454" xmlns:xlink="http://www.w3.org/1999/xlink" width="200" height="200"><defs><style type="text/css">@font-face { font-family: feedback-iconfont; src: url("//at.alicdn.com/t/font_1031158_u69w8yhxdu.woff2?t=1630033759944") format("woff2"), url("//at.alicdn.com/t/font_1031158_u69w8yhxdu.woff?t=1630033759944") format("woff"), url("//at.alicdn.com/t/font_1031158_u69w8yhxdu.ttf?t=1630033759944") format("truetype"); }
</style></defs><path d="M849.170732 0c97.404878 0 174.829268 77.42439 174.829268 174.829268v674.341464c0 97.404878-77.42439 174.829268-174.829268 174.829268H174.829268c-97.404878 0-174.829268-77.42439-174.829268-174.829268V174.829268c0-97.404878 77.42439-174.829268 174.829268-174.829268h674.341464zM307.2 689.326829h-54.946341c-17.482927 0-27.473171 9.990244-27.473171 27.473171v54.946341c0 17.482927 9.990244 27.473171 27.473171 27.473171h54.946341c17.482927 0 27.473171-9.990244 27.473171-27.473171v-54.946341c0-17.482927-9.990244-27.473171-27.473171-27.473171z m439.570732 0h-274.731708c-17.482927 0-27.473171 9.990244-27.47317 27.473171v54.946341c0 17.482927 9.990244 27.473171 27.47317 27.473171h274.731708c17.482927 0 27.473171-9.990244 27.47317-27.473171v-54.946341c0-17.482927-9.990244-27.473171-27.47317-27.473171z m-439.570732-219.785366h-54.946341c-17.482927 0-27.473171 9.990244-27.473171 27.473171v54.946342c0 17.482927 9.990244 27.473171 27.473171 27.47317h54.946341c17.482927 0 27.473171-9.990244 27.473171-27.47317v-54.946342c0-17.482927-9.990244-27.473171-27.473171-27.473171z m439.570732 0h-274.731708c-17.482927 0-27.473171 9.990244-27.47317 27.473171v54.946342c0 17.482927 9.990244 27.473171 27.47317 27.47317h274.731708c17.482927 0 27.473171-9.990244 27.47317-27.47317v-54.946342c0-17.482927-9.990244-27.473171-27.47317-27.473171zM307.2 249.756098h-54.946341c-17.482927 0-27.473171 9.990244-27.473171 27.47317v54.946342c0 17.482927 9.990244 27.473171 27.473171 27.47317h54.946341c17.482927 0 27.473171-9.990244 27.473171-27.47317v-54.946342c0-17.482927-9.990244-27.473171-27.473171-27.47317z m439.570732 0h-274.731708c-17.482927 0-27.473171 9.990244-27.47317 27.47317v54.946342c0 17.482927 9.990244 27.473171 27.47317 27.47317h274.731708c17.482927 0 27.473171-9.990244 27.47317-27.47317v-54.946342c0-17.482927-9.990244-27.473171-27.47317-27.47317z" fill="#2c2c2c" p-id="2455"></path></svg>